<svg xmlns="http://www.w3.org/2000/svg" xmlns:xlink="http://www.w3.org/1999/xlink" width="500" zoomAndPan="magnify" viewBox="0 0 375 225" height="300" preserveAspectRatio="xMidYMid meet" version="1.0"><defs><g/><clipPath id="5cbccf7a13"><path d="M 115.558594 146 L 233 146 L 233 159 L 115.558594 159 Z M 115.558594 146 " clip-rule="nonzero"/></clipPath><clipPath id="69772f2d50"><path d="M 115.558594 0 L 274.558594 0 L 274.558594 159 L 115.558594 159 Z M 115.558594 0 " clip-rule="nonzero"/></clipPath></defs><rect x="-37.5" width="450" fill="#ffffff" y="-22.5" height="270" fill-opacity="1"/><rect x="-37.5" width="450" fill="#ffffff" y="-22.5" height="270" fill-opacity="1"/><rect x="-37.5" width="450" fill="#ffffff" y="-22.5" height="270" fill-opacity="1"/><g clip-path="url(#5cbccf7a13)"><path fill="#ff1616" d="M 222.503906 146.429688 L 115.558594 146.429688 L 115.558594 158.847656 L 232.605469 158.847656 L 232.605469 155.488281 C 230.164062 154.007812 227.882812 152.246094 225.832031 150.21875 C 224.625 149.019531 223.511719 147.753906 222.503906 146.429688 Z M 222.503906 146.429688 " fill-opacity="1" fill-rule="nonzero"/></g><g clip-path="url(#69772f2d50)"><path fill="#ff1616" d="M 274.515625 59.808594 L 274.515625 39.171875 L 194.878906 0.113281 L 115.558594 39.179688 L 115.558594 59.808594 L 127.777344 59.808594 C 126.910156 61.96875 126.425781 64.328125 126.425781 66.792969 L 126.425781 136.804688 L 213.667969 136.804688 L 213.667969 66.792969 C 213.667969 64.328125 213.183594 61.96875 212.3125 59.808594 L 245.023438 59.808594 L 245.023438 71.71875 C 241.894531 72.671875 238.957031 74.335938 236.535156 76.582031 C 232.34375 80.464844 230.066406 85.570312 230.121094 90.964844 C 230.265625 104.703125 241.472656 110.488281 248.75 114.140625 C 257.652344 118.609375 262.054688 121.136719 262.101562 125.519531 C 262.128906 128.167969 261.03125 130.742188 259.019531 132.769531 C 257.011719 134.789062 254.3125 135.960938 251.609375 135.988281 C 251.574219 135.988281 251.539062 135.992188 251.503906 135.992188 C 248.535156 135.992188 245.480469 134.714844 243.308594 132.5625 C 241.410156 130.6875 240.367188 128.335938 240.367188 125.9375 L 227.949219 125.9375 C 227.949219 131.675781 230.300781 137.164062 234.570312 141.390625 C 237.5 144.292969 241.128906 146.378906 245.023438 147.488281 L 245.023438 158.847656 L 257.441406 158.847656 L 257.441406 147.613281 C 261.308594 146.5625 264.882812 144.488281 267.824219 141.527344 C 272.203125 137.121094 274.578125 131.390625 274.515625 125.390625 C 274.386719 112.953125 263.191406 107.402344 254.339844 102.964844 C 246.519531 99.039062 242.597656 96.394531 242.539062 90.832031 C 242.515625 88.34375 244.054688 86.542969 244.972656 85.691406 C 246.652344 84.136719 248.867188 83.234375 251.058594 83.210938 C 253.253906 83.179688 255.417969 84.074219 257 85.640625 C 258.394531 87.019531 259.160156 88.761719 259.160156 90.542969 L 271.578125 90.542969 C 271.578125 85.421875 269.503906 80.542969 265.734375 76.816406 C 263.398438 74.5 260.535156 72.792969 257.441406 71.796875 L 257.441406 59.808594 Z M 151.574219 124.386719 L 138.84375 124.386719 L 138.84375 66.792969 C 138.84375 63.285156 141.699219 60.429688 145.210938 60.429688 C 148.71875 60.429688 151.574219 63.285156 151.574219 66.792969 Z M 176.101562 66.792969 L 176.101562 124.386719 L 163.992188 124.386719 L 163.992188 66.792969 C 163.992188 64.328125 163.507812 61.96875 162.640625 59.808594 L 177.453125 59.808594 C 176.585938 61.96875 176.101562 64.328125 176.101562 66.792969 Z M 201.25 124.386719 L 188.519531 124.386719 L 188.519531 66.792969 C 188.519531 63.285156 191.375 60.429688 194.882812 60.429688 C 198.394531 60.429688 201.25 63.285156 201.25 66.792969 Z M 127.980469 47.390625 L 127.980469 46.90625 L 194.890625 13.949219 L 262.097656 46.914062 L 262.097656 47.390625 Z M 127.980469 47.390625 " fill-opacity="1" fill-rule="nonzero"/></g><g fill="#ff1616" fill-opacity="1"><g transform="translate(33.94522, 196.222537)"><g><path d="M 6.625 -18.5 L 13.734375 -8.640625 L 20.875 -18.5 L 23.625 -18.5 L 23.625 0 L 20.765625 0 L 20.765625 -7.734375 C 20.765625 -8.867188 20.78125 -9.941406 20.8125 -10.953125 C 20.851562 -11.960938 20.9375 -12.976562 21.0625 -14 L 14.5625 -5.3125 L 12.8125 -5.3125 L 6.390625 -13.984375 C 6.515625 -12.972656 6.59375 -11.960938 6.625 -10.953125 C 6.664062 -9.941406 6.6875 -8.867188 6.6875 -7.734375 L 6.6875 0 L 3.828125 0 L 3.828125 -18.5 Z M 6.625 -18.5 "/></g></g></g><g fill="#ff1616" fill-opacity="1"><g transform="translate(63.590337, 196.222537)"><g><path d="M 18.078125 0 L 16.09375 -4.4375 L 6.609375 -4.4375 L 4.625 0 L 1.671875 0 L 9.859375 -18.5 L 13 -18.5 L 21.15625 0 Z M 9.90625 -11.9375 L 7.828125 -7.1875 L 14.875 -7.1875 L 12.734375 -12.046875 C 12.242188 -13.140625 11.773438 -14.300781 11.328125 -15.53125 C 11.097656 -14.882812 10.863281 -14.257812 10.625 -13.65625 C 10.394531 -13.0625 10.15625 -12.488281 9.90625 -11.9375 Z M 9.90625 -11.9375 "/></g></g></g><g fill="#ff1616" fill-opacity="1"><g transform="translate(88.611794, 196.222537)"><g><path d="M 8.109375 0 L 8.109375 -15.75 L 1.875 -15.75 L 1.875 -18.5 L 17.328125 -18.5 L 17.328125 -15.75 L 10.96875 -15.75 L 10.96875 0 Z M 8.109375 0 "/></g></g></g><g fill="#ff1616" fill-opacity="1"><g transform="translate(110.013595, 196.222537)"><g><path d="M 8.109375 0 L 8.109375 -15.75 L 1.875 -15.75 L 1.875 -18.5 L 17.328125 -18.5 L 17.328125 -15.75 L 10.96875 -15.75 L 10.96875 0 Z M 8.109375 0 "/></g></g></g><g fill="#ff1616" fill-opacity="1"><g transform="translate(131.415391, 196.222537)"><g><path d="M 19.28125 -12.703125 C 19.28125 -11.492188 18.898438 -10.390625 18.140625 -9.390625 C 17.390625 -8.398438 16.429688 -7.691406 15.265625 -7.265625 L 20.21875 0.03125 L 16.703125 0 L 12.078125 -6.875 L 6.6875 -6.875 L 6.6875 0 L 3.828125 0 L 3.828125 -18.5 L 13.34375 -18.5 C 14.382812 -18.5 15.351562 -18.25 16.25 -17.75 C 17.144531 -17.257812 17.875 -16.582031 18.4375 -15.71875 C 19 -14.851562 19.28125 -13.847656 19.28125 -12.703125 Z M 12.6875 -15.75 L 6.6875 -15.75 L 6.6875 -9.625 L 13.03125 -9.625 C 13.644531 -9.625 14.195312 -9.765625 14.6875 -10.046875 C 15.1875 -10.335938 15.578125 -10.722656 15.859375 -11.203125 C 16.148438 -11.679688 16.296875 -12.191406 16.296875 -12.734375 C 16.296875 -13.316406 16.128906 -13.835938 15.796875 -14.296875 C 15.460938 -14.753906 15.019531 -15.109375 14.46875 -15.359375 C 13.925781 -15.617188 13.332031 -15.75 12.6875 -15.75 Z M 12.6875 -15.75 "/></g></g></g><g fill="#ff1616" fill-opacity="1"><g transform="translate(156.648221, 196.222537)"><g><path d="M 3.828125 -18.5 L 17.546875 -18.5 L 17.546875 -15.75 L 6.6875 -15.75 L 6.6875 -10.859375 L 16.09375 -10.859375 L 16.09375 -8.109375 L 6.6875 -8.109375 L 6.6875 -2.75 L 17.546875 -2.75 L 17.546875 0 L 3.828125 0 Z M 3.828125 -18.5 "/></g></g></g><g fill="#ff1616" fill-opacity="1"><g transform="translate(179.635277, 196.222537)"><g><path d="M 4.328125 -5.65625 C 5.242188 -4.582031 6.195312 -3.753906 7.1875 -3.171875 C 8.1875 -2.585938 9.410156 -2.296875 10.859375 -2.296875 C 11.628906 -2.296875 12.367188 -2.394531 13.078125 -2.59375 C 13.796875 -2.800781 14.390625 -3.109375 14.859375 -3.515625 C 15.328125 -3.929688 15.5625 -4.453125 15.5625 -5.078125 C 15.5625 -5.953125 15.09375 -6.582031 14.15625 -6.96875 C 13.226562 -7.363281 11.914062 -7.679688 10.21875 -7.921875 C 8.144531 -8.242188 6.488281 -8.832031 5.25 -9.6875 C 4.019531 -10.539062 3.40625 -11.785156 3.40625 -13.421875 C 3.40625 -14.535156 3.734375 -15.488281 4.390625 -16.28125 C 5.054688 -17.070312 5.953125 -17.679688 7.078125 -18.109375 C 8.203125 -18.546875 9.445312 -18.765625 10.8125 -18.765625 C 12.5 -18.765625 13.957031 -18.476562 15.1875 -17.90625 C 16.425781 -17.34375 17.394531 -16.546875 18.09375 -15.515625 L 16.140625 -13.46875 C 15.554688 -14.28125 14.804688 -14.9375 13.890625 -15.4375 C 12.984375 -15.945312 11.929688 -16.203125 10.734375 -16.203125 C 9.492188 -16.203125 8.457031 -15.972656 7.625 -15.515625 C 6.800781 -15.066406 6.390625 -14.441406 6.390625 -13.640625 C 6.390625 -12.679688 6.832031 -12.003906 7.71875 -11.609375 C 8.613281 -11.210938 9.785156 -10.898438 11.234375 -10.671875 C 12.179688 -10.535156 13.085938 -10.351562 13.953125 -10.125 C 14.828125 -9.894531 15.609375 -9.585938 16.296875 -9.203125 C 16.984375 -8.828125 17.53125 -8.347656 17.9375 -7.765625 C 18.34375 -7.179688 18.546875 -6.457031 18.546875 -5.59375 C 18.546875 -4.414062 18.226562 -3.382812 17.59375 -2.5 C 16.957031 -1.625 16.050781 -0.941406 14.875 -0.453125 C 13.707031 0.0234375 12.328125 0.265625 10.734375 0.265625 C 9.023438 0.265625 7.484375 -0.015625 6.109375 -0.578125 C 4.734375 -1.140625 3.523438 -2.054688 2.484375 -3.328125 Z M 4.328125 -5.65625 "/></g></g></g><g fill="#ff1616" fill-opacity="1"><g transform="translate(202.91295, 196.222537)"><g><path d="M 4.328125 -5.65625 C 5.242188 -4.582031 6.195312 -3.753906 7.1875 -3.171875 C 8.1875 -2.585938 9.410156 -2.296875 10.859375 -2.296875 C 11.628906 -2.296875 12.367188 -2.394531 13.078125 -2.59375 C 13.796875 -2.800781 14.390625 -3.109375 14.859375 -3.515625 C 15.328125 -3.929688 15.5625 -4.453125 15.5625 -5.078125 C 15.5625 -5.953125 15.09375 -6.582031 14.15625 -6.96875 C 13.226562 -7.363281 11.914062 -7.679688 10.21875 -7.921875 C 8.144531 -8.242188 6.488281 -8.832031 5.25 -9.6875 C 4.019531 -10.539062 3.40625 -11.785156 3.40625 -13.421875 C 3.40625 -14.535156 3.734375 -15.488281 4.390625 -16.28125 C 5.054688 -17.070312 5.953125 -17.679688 7.078125 -18.109375 C 8.203125 -18.546875 9.445312 -18.765625 10.8125 -18.765625 C 12.5 -18.765625 13.957031 -18.476562 15.1875 -17.90625 C 16.425781 -17.34375 17.394531 -16.546875 18.09375 -15.515625 L 16.140625 -13.46875 C 15.554688 -14.28125 14.804688 -14.9375 13.890625 -15.4375 C 12.984375 -15.945312 11.929688 -16.203125 10.734375 -16.203125 C 9.492188 -16.203125 8.457031 -15.972656 7.625 -15.515625 C 6.800781 -15.066406 6.390625 -14.441406 6.390625 -13.640625 C 6.390625 -12.679688 6.832031 -12.003906 7.71875 -11.609375 C 8.613281 -11.210938 9.785156 -10.898438 11.234375 -10.671875 C 12.179688 -10.535156 13.085938 -10.351562 13.953125 -10.125 C 14.828125 -9.894531 15.609375 -9.585938 16.296875 -9.203125 C 16.984375 -8.828125 17.53125 -8.347656 17.9375 -7.765625 C 18.34375 -7.179688 18.546875 -6.457031 18.546875 -5.59375 C 18.546875 -4.414062 18.226562 -3.382812 17.59375 -2.5 C 16.957031 -1.625 16.050781 -0.941406 14.875 -0.453125 C 13.707031 0.0234375 12.328125 0.265625 10.734375 0.265625 C 9.023438 0.265625 7.484375 -0.015625 6.109375 -0.578125 C 4.734375 -1.140625 3.523438 -2.054688 2.484375 -3.328125 Z M 4.328125 -5.65625 "/></g></g></g><g fill="#ff1616" fill-opacity="1"><g transform="translate(226.190623, 196.222537)"><g/></g></g><g fill="#ff1616" fill-opacity="1"><g transform="translate(238.820665, 196.222537)"><g><path d="M 12.875 -18.5 C 14.96875 -18.5 16.546875 -18.101562 17.609375 -17.3125 C 18.671875 -16.519531 19.203125 -15.363281 19.203125 -13.84375 C 19.203125 -13.019531 18.976562 -12.273438 18.53125 -11.609375 C 18.082031 -10.953125 17.425781 -10.445312 16.5625 -10.09375 C 17.195312 -9.882812 17.789062 -9.582031 18.34375 -9.1875 C 18.90625 -8.800781 19.351562 -8.300781 19.6875 -7.6875 C 20.019531 -7.070312 20.1875 -6.320312 20.1875 -5.4375 C 20.1875 -4.363281 19.984375 -3.472656 19.578125 -2.765625 C 19.171875 -2.066406 18.632812 -1.515625 17.96875 -1.109375 C 17.3125 -0.703125 16.582031 -0.414062 15.78125 -0.25 C 14.976562 -0.0820312 14.175781 0 13.375 0 L 3.828125 0 L 3.828125 -18.5 Z M 12.78125 -15.75 L 6.6875 -15.75 L 6.6875 -10.90625 L 13.109375 -10.90625 C 13.953125 -10.925781 14.691406 -11.144531 15.328125 -11.5625 C 15.972656 -11.988281 16.296875 -12.59375 16.296875 -13.375 C 16.296875 -14.238281 15.957031 -14.847656 15.28125 -15.203125 C 14.601562 -15.566406 13.769531 -15.75 12.78125 -15.75 Z M 13.234375 -8.171875 L 6.6875 -8.171875 L 6.6875 -2.75 L 13.375 -2.75 C 14.519531 -2.75 15.457031 -2.972656 16.1875 -3.421875 C 16.914062 -3.867188 17.28125 -4.5625 17.28125 -5.5 C 17.28125 -6.1875 17.070312 -6.722656 16.65625 -7.109375 C 16.238281 -7.492188 15.71875 -7.765625 15.09375 -7.921875 C 14.46875 -8.085938 13.847656 -8.171875 13.234375 -8.171875 Z M 13.234375 -8.171875 "/></g></g></g><g fill="#ff1616" fill-opacity="1"><g transform="translate(263.657167, 196.222537)"><g><path d="M 18.078125 0 L 16.09375 -4.4375 L 6.609375 -4.4375 L 4.625 0 L 1.671875 0 L 9.859375 -18.5 L 13 -18.5 L 21.15625 0 Z M 9.90625 -11.9375 L 7.828125 -7.1875 L 14.875 -7.1875 L 12.734375 -12.046875 C 12.242188 -13.140625 11.773438 -14.300781 11.328125 -15.53125 C 11.097656 -14.882812 10.863281 -14.257812 10.625 -13.65625 C 10.394531 -13.0625 10.15625 -12.488281 9.90625 -11.9375 Z M 9.90625 -11.9375 "/></g></g></g><g fill="#ff1616" fill-opacity="1"><g transform="translate(288.678622, 196.222537)"><g><path d="M 19.125 -18.5 L 21.984375 -18.5 L 21.984375 0 L 19.203125 0 L 6.203125 -14.375 C 6.316406 -13.25 6.425781 -12.128906 6.53125 -11.015625 C 6.632812 -9.910156 6.6875 -8.800781 6.6875 -7.6875 L 6.6875 0 L 3.828125 0 L 3.828125 -18.5 L 6.546875 -18.5 L 19.546875 -3.78125 C 19.441406 -4.644531 19.351562 -5.570312 19.28125 -6.5625 C 19.21875 -7.5625 19.175781 -8.5625 19.15625 -9.5625 C 19.132812 -10.570312 19.125 -11.523438 19.125 -12.421875 Z M 19.125 -18.5 "/></g></g></g><g fill="#ff1616" fill-opacity="1"><g transform="translate(316.685641, 196.222537)"><g><path d="M 6.6875 0 L 3.828125 0 L 3.828125 -18.5 L 6.6875 -18.5 L 6.6875 -8.90625 L 10.8125 -12.390625 L 17.859375 -18.5 L 21.875 -18.5 L 13 -10.96875 L 21.71875 0 L 18.015625 0 L 10.859375 -9.140625 L 6.6875 -5.578125 Z M 6.6875 0 "/></g></g></g><g fill="#ff1616" fill-opacity="1"><g transform="translate(61.086092, 221.630008)"><g><path d="M 2.59375 -3.390625 C 3.144531 -2.742188 3.71875 -2.242188 4.3125 -1.890625 C 4.914062 -1.546875 5.648438 -1.375 6.515625 -1.375 C 6.984375 -1.375 7.429688 -1.4375 7.859375 -1.5625 C 8.285156 -1.6875 8.640625 -1.867188 8.921875 -2.109375 C 9.203125 -2.359375 9.34375 -2.671875 9.34375 -3.046875 C 9.34375 -3.578125 9.0625 -3.957031 8.5 -4.1875 C 7.9375 -4.414062 7.148438 -4.601562 6.140625 -4.75 C 4.890625 -4.945312 3.894531 -5.300781 3.15625 -5.8125 C 2.414062 -6.320312 2.046875 -7.070312 2.046875 -8.0625 C 2.046875 -8.726562 2.242188 -9.296875 2.640625 -9.765625 C 3.035156 -10.242188 3.570312 -10.613281 4.25 -10.875 C 4.925781 -11.132812 5.671875 -11.265625 6.484375 -11.265625 C 7.503906 -11.265625 8.382812 -11.09375 9.125 -10.75 C 9.863281 -10.414062 10.441406 -9.9375 10.859375 -9.3125 L 9.6875 -8.09375 C 9.34375 -8.570312 8.894531 -8.960938 8.34375 -9.265625 C 7.789062 -9.566406 7.15625 -9.71875 6.4375 -9.71875 C 5.695312 -9.71875 5.078125 -9.582031 4.578125 -9.3125 C 4.085938 -9.039062 3.84375 -8.664062 3.84375 -8.1875 C 3.84375 -7.613281 4.109375 -7.207031 4.640625 -6.96875 C 5.171875 -6.726562 5.867188 -6.539062 6.734375 -6.40625 C 7.304688 -6.320312 7.851562 -6.210938 8.375 -6.078125 C 8.90625 -5.941406 9.375 -5.757812 9.78125 -5.53125 C 10.195312 -5.300781 10.523438 -5.007812 10.765625 -4.65625 C 11.015625 -4.3125 11.140625 -3.878906 11.140625 -3.359375 C 11.140625 -2.648438 10.945312 -2.03125 10.5625 -1.5 C 10.175781 -0.976562 9.628906 -0.570312 8.921875 -0.28125 C 8.222656 0.0078125 7.394531 0.15625 6.4375 0.15625 C 5.414062 0.15625 4.488281 -0.0078125 3.65625 -0.34375 C 2.832031 -0.6875 2.109375 -1.238281 1.484375 -2 Z M 2.59375 -3.390625 "/></g></g></g><g fill="#ff1616" fill-opacity="1"><g transform="translate(79.022451, 221.630008)"><g><path d="M 10.84375 0 L 9.65625 -2.671875 L 3.96875 -2.671875 L 2.78125 0 L 1 0 L 5.921875 -11.09375 L 7.796875 -11.09375 L 12.703125 0 Z M 5.953125 -7.171875 L 4.6875 -4.3125 L 8.921875 -4.3125 L 7.640625 -7.234375 C 7.347656 -7.890625 7.066406 -8.585938 6.796875 -9.328125 C 6.660156 -8.929688 6.519531 -8.550781 6.375 -8.1875 C 6.238281 -7.832031 6.097656 -7.492188 5.953125 -7.171875 Z M 5.953125 -7.171875 "/></g></g></g><g fill="#ff1616" fill-opacity="1"><g transform="translate(98.005506, 221.630008)"><g><path d="M 12.46875 -11.09375 L 7.6875 0 L 5.796875 0 L 0.984375 -11.09375 L 2.9375 -11.09375 L 5.75 -4.421875 C 5.914062 -4.035156 6.09375 -3.617188 6.28125 -3.171875 C 6.476562 -2.722656 6.660156 -2.296875 6.828125 -1.890625 C 6.984375 -2.296875 7.148438 -2.71875 7.328125 -3.15625 C 7.503906 -3.601562 7.671875 -4.019531 7.828125 -4.40625 L 10.453125 -11.09375 Z M 12.46875 -11.09375 "/></g></g></g><g fill="#ff1616" fill-opacity="1"><g transform="translate(116.734808, 221.630008)"><g><path d="M 2.296875 -11.09375 L 10.53125 -11.09375 L 10.53125 -9.453125 L 4.015625 -9.453125 L 4.015625 -6.515625 L 9.65625 -6.515625 L 9.65625 -4.875 L 4.015625 -4.875 L 4.015625 -1.65625 L 10.53125 -1.65625 L 10.53125 0 L 2.296875 0 Z M 2.296875 -11.09375 "/></g></g></g><g fill="#ff1616" fill-opacity="1"><g transform="translate(134.496725, 221.630008)"><g/></g></g><g fill="#ff1616" fill-opacity="1"><g transform="translate(146.041973, 221.630008)"><g><path d="M 12.359375 -11.09375 L 7.578125 -4.546875 L 7.578125 0 L 5.875 0 L 5.875 -4.484375 L 0.78125 -11.09375 L 3.015625 -11.09375 L 6.75 -6.078125 L 10.296875 -11.09375 Z M 12.359375 -11.09375 "/></g></g></g><g fill="#ff1616" fill-opacity="1"><g transform="translate(164.454107, 221.630008)"><g><path d="M 13.765625 -5.546875 C 13.765625 -4.742188 13.613281 -3.992188 13.3125 -3.296875 C 13.007812 -2.609375 12.582031 -2.003906 12.03125 -1.484375 C 11.488281 -0.972656 10.835938 -0.570312 10.078125 -0.28125 C 9.328125 0.0078125 8.507812 0.15625 7.625 0.15625 C 6.71875 0.15625 5.890625 0.0078125 5.140625 -0.28125 C 4.390625 -0.570312 3.738281 -0.972656 3.1875 -1.484375 C 2.644531 -2.003906 2.222656 -2.609375 1.921875 -3.296875 C 1.617188 -3.992188 1.46875 -4.742188 1.46875 -5.546875 C 1.46875 -6.347656 1.617188 -7.09375 1.921875 -7.78125 C 2.222656 -8.476562 2.644531 -9.085938 3.1875 -9.609375 C 3.738281 -10.128906 4.390625 -10.535156 5.140625 -10.828125 C 5.890625 -11.117188 6.71875 -11.265625 7.625 -11.265625 C 8.507812 -11.265625 9.328125 -11.117188 10.078125 -10.828125 C 10.835938 -10.535156 11.488281 -10.128906 12.03125 -9.609375 C 12.582031 -9.085938 13.007812 -8.476562 13.3125 -7.78125 C 13.613281 -7.09375 13.765625 -6.347656 13.765625 -5.546875 Z M 12.015625 -5.546875 C 12.015625 -6.316406 11.828125 -7.003906 11.453125 -7.609375 C 11.078125 -8.222656 10.554688 -8.707031 9.890625 -9.0625 C 9.234375 -9.414062 8.476562 -9.59375 7.625 -9.59375 C 6.75 -9.59375 5.976562 -9.414062 5.3125 -9.0625 C 4.65625 -8.707031 4.140625 -8.222656 3.765625 -7.609375 C 3.398438 -7.003906 3.21875 -6.316406 3.21875 -5.546875 C 3.21875 -4.773438 3.398438 -4.082031 3.765625 -3.46875 C 4.140625 -2.863281 4.65625 -2.382812 5.3125 -2.03125 C 5.976562 -1.675781 6.75 -1.5 7.625 -1.5 C 8.476562 -1.5 9.234375 -1.675781 9.890625 -2.03125 C 10.554688 -2.382812 11.078125 -2.867188 11.453125 -3.484375 C 11.828125 -4.097656 12.015625 -4.785156 12.015625 -5.546875 Z M 12.015625 -5.546875 "/></g></g></g><g fill="#ff1616" fill-opacity="1"><g transform="translate(184.975468, 221.630008)"><g><path d="M 12.3125 -11.125 L 12.3125 -4.859375 C 12.3125 -3.898438 12.09375 -3.046875 11.65625 -2.296875 C 11.226562 -1.554688 10.632812 -0.972656 9.875 -0.546875 C 9.113281 -0.117188 8.226562 0.09375 7.21875 0.09375 C 6.207031 0.09375 5.316406 -0.117188 4.546875 -0.546875 C 3.785156 -0.972656 3.191406 -1.554688 2.765625 -2.296875 C 2.335938 -3.046875 2.125 -3.898438 2.125 -4.859375 L 2.125 -11.125 L 3.84375 -11.125 L 3.84375 -4.953125 C 3.84375 -4.296875 3.992188 -3.707031 4.296875 -3.1875 C 4.597656 -2.675781 5.003906 -2.273438 5.515625 -1.984375 C 6.035156 -1.703125 6.601562 -1.5625 7.21875 -1.5625 C 7.875 -1.5625 8.457031 -1.703125 8.96875 -1.984375 C 9.488281 -2.273438 9.898438 -2.675781 10.203125 -3.1875 C 10.515625 -3.707031 10.671875 -4.296875 10.671875 -4.953125 L 10.671875 -11.125 Z M 12.3125 -11.125 "/></g></g></g><g fill="#ff1616" fill-opacity="1"><g transform="translate(204.68802, 221.630008)"><g><path d="M 11.578125 -7.625 C 11.578125 -6.894531 11.347656 -6.226562 10.890625 -5.625 C 10.441406 -5.03125 9.867188 -4.609375 9.171875 -4.359375 L 12.125 0.015625 L 10.015625 0 L 7.25 -4.125 L 4.015625 -4.125 L 4.015625 0 L 2.296875 0 L 2.296875 -11.09375 L 8.015625 -11.09375 C 8.628906 -11.09375 9.207031 -10.945312 9.75 -10.65625 C 10.289062 -10.363281 10.726562 -9.957031 11.0625 -9.4375 C 11.40625 -8.914062 11.578125 -8.3125 11.578125 -7.625 Z M 7.609375 -9.453125 L 4.015625 -9.453125 L 4.015625 -5.765625 L 7.8125 -5.765625 C 8.1875 -5.765625 8.519531 -5.851562 8.8125 -6.03125 C 9.113281 -6.207031 9.347656 -6.4375 9.515625 -6.71875 C 9.691406 -7.007812 9.78125 -7.316406 9.78125 -7.640625 C 9.78125 -7.992188 9.679688 -8.304688 9.484375 -8.578125 C 9.285156 -8.859375 9.019531 -9.070312 8.6875 -9.21875 C 8.363281 -9.375 8.003906 -9.453125 7.609375 -9.453125 Z M 7.609375 -9.453125 "/></g></g></g><g fill="#ff1616" fill-opacity="1"><g transform="translate(223.797937, 221.630008)"><g/></g></g><g fill="#ff1616" fill-opacity="1"><g transform="translate(235.343185, 221.630008)"><g><path d="M 3.984375 -11.09375 L 8.25 -5.1875 L 12.53125 -11.09375 L 14.171875 -11.09375 L 14.171875 0 L 12.46875 0 L 12.46875 -4.640625 C 12.46875 -5.316406 12.476562 -5.957031 12.5 -6.5625 C 12.519531 -7.175781 12.566406 -7.789062 12.640625 -8.40625 L 8.734375 -3.1875 L 7.6875 -3.1875 L 3.84375 -8.390625 C 3.914062 -7.785156 3.960938 -7.175781 3.984375 -6.5625 C 4.003906 -5.957031 4.015625 -5.316406 4.015625 -4.640625 L 4.015625 0 L 2.296875 0 L 2.296875 -11.09375 Z M 3.984375 -11.09375 "/></g></g></g><g fill="#ff1616" fill-opacity="1"><g transform="translate(257.101533, 221.630008)"><g><path d="M 13.765625 -5.546875 C 13.765625 -4.742188 13.613281 -3.992188 13.3125 -3.296875 C 13.007812 -2.609375 12.582031 -2.003906 12.03125 -1.484375 C 11.488281 -0.972656 10.835938 -0.570312 10.078125 -0.28125 C 9.328125 0.0078125 8.507812 0.15625 7.625 0.15625 C 6.71875 0.15625 5.890625 0.0078125 5.140625 -0.28125 C 4.390625 -0.570312 3.738281 -0.972656 3.1875 -1.484375 C 2.644531 -2.003906 2.222656 -2.609375 1.921875 -3.296875 C 1.617188 -3.992188 1.46875 -4.742188 1.46875 -5.546875 C 1.46875 -6.347656 1.617188 -7.09375 1.921875 -7.78125 C 2.222656 -8.476562 2.644531 -9.085938 3.1875 -9.609375 C 3.738281 -10.128906 4.390625 -10.535156 5.140625 -10.828125 C 5.890625 -11.117188 6.71875 -11.265625 7.625 -11.265625 C 8.507812 -11.265625 9.328125 -11.117188 10.078125 -10.828125 C 10.835938 -10.535156 11.488281 -10.128906 12.03125 -9.609375 C 12.582031 -9.085938 13.007812 -8.476562 13.3125 -7.78125 C 13.613281 -7.09375 13.765625 -6.347656 13.765625 -5.546875 Z M 12.015625 -5.546875 C 12.015625 -6.316406 11.828125 -7.003906 11.453125 -7.609375 C 11.078125 -8.222656 10.554688 -8.707031 9.890625 -9.0625 C 9.234375 -9.414062 8.476562 -9.59375 7.625 -9.59375 C 6.75 -9.59375 5.976562 -9.414062 5.3125 -9.0625 C 4.65625 -8.707031 4.140625 -8.222656 3.765625 -7.609375 C 3.398438 -7.003906 3.21875 -6.316406 3.21875 -5.546875 C 3.21875 -4.773438 3.398438 -4.082031 3.765625 -3.46875 C 4.140625 -2.863281 4.65625 -2.382812 5.3125 -2.03125 C 5.976562 -1.675781 6.75 -1.5 7.625 -1.5 C 8.476562 -1.5 9.234375 -1.675781 9.890625 -2.03125 C 10.554688 -2.382812 11.078125 -2.867188 11.453125 -3.484375 C 11.828125 -4.097656 12.015625 -4.785156 12.015625 -5.546875 Z M 12.015625 -5.546875 "/></g></g></g><g fill="#ff1616" fill-opacity="1"><g transform="translate(277.622894, 221.630008)"><g><path d="M 11.484375 -11.09375 L 13.1875 -11.09375 L 13.1875 0 L 11.53125 0 L 3.734375 -8.625 C 3.796875 -7.945312 3.859375 -7.273438 3.921875 -6.609375 C 3.984375 -5.941406 4.015625 -5.273438 4.015625 -4.609375 L 4.015625 0 L 2.296875 0 L 2.296875 -11.09375 L 3.9375 -11.09375 L 11.734375 -2.265625 C 11.671875 -2.785156 11.617188 -3.34375 11.578125 -3.9375 C 11.535156 -4.539062 11.507812 -5.140625 11.5 -5.734375 C 11.488281 -6.335938 11.484375 -6.910156 11.484375 -7.453125 Z M 11.484375 -11.09375 "/></g></g></g><g fill="#ff1616" fill-opacity="1"><g transform="translate(298.397992, 221.630008)"><g><path d="M 2.296875 -11.09375 L 10.53125 -11.09375 L 10.53125 -9.453125 L 4.015625 -9.453125 L 4.015625 -6.515625 L 9.65625 -6.515625 L 9.65625 -4.875 L 4.015625 -4.875 L 4.015625 -1.65625 L 10.53125 -1.65625 L 10.53125 0 L 2.296875 0 Z M 2.296875 -11.09375 "/></g></g></g><g fill="#ff1616" fill-opacity="1"><g transform="translate(316.159909, 221.630008)"><g><path d="M 12.359375 -11.09375 L 7.578125 -4.546875 L 7.578125 0 L 5.875 0 L 5.875 -4.484375 L 0.78125 -11.09375 L 3.015625 -11.09375 L 6.75 -6.078125 L 10.296875 -11.09375 Z M 12.359375 -11.09375 "/></g></g></g></svg>